<svg xmlns="http://www.w3.org/2000/svg" viewBox="0 0 1200 630">
<rect width="1200" height="630" fill="#111318"/>
<g opacity=".22" stroke="#555961"><path d="M0 90h1200M0 180h1200M0 270h1200M0 360h1200M0 450h1200M0 540h1200"/><path d="M100 0v630M200 0v630M300 0v630M400 0v630M500 0v630M600 0v630M700 0v630M800 0v630M900 0v630M1000 0v630M1100 0v630"/></g>
<path d="M0 0h78v630H0zM1120 0h80v630h-80z" fill="#cf1738"/>
<path d="M78 0h290l-90 90H78zM1120 630H830l90-90h200z" fill="#cf1738"/>
<g transform="skewX(-7)">
<text x="112" y="173" fill="#cf1738" font-family="monospace" font-size="23" font-style="italic" font-weight="700" letter-spacing="5">FIVE//SAW / SYSTEM 05</text>
<text x="108" y="326" fill="#f5f5f2" font-family="Arial Black,Impact,sans-serif" font-size="111" font-style="italic" font-weight="900" letter-spacing="-7">ASCII MEDIA</text>
<text x="108" y="431" fill="#cf1738" font-family="Arial Black,Impact,sans-serif" font-size="111" font-style="italic" font-weight="900" letter-spacing="-7">PLAYER.</text>
</g>
<text x="112" y="506" fill="#f5f5f2" font-family="monospace" font-size="22" font-style="italic" font-weight="700" letter-spacing="3">BUILD / BREAK / REPEAT</text>
<text x="112" y="548" fill="#555961" font-family="monospace" font-size="19" letter-spacing="2">LOCAL AUDIO / LIVE TEXT / EVERY PLATFORM</text>
<path d="M783 100h245l62 62-55 55H860l-41 41h273v58H783l-66-66 69-69h194l36-36H783z" fill="#f5f5f2"/>
<path d="M900 100h51l-43 117h-51z" fill="#cf1738"/>
<text x="827" y="460" fill="#f5f5f2" font-family="Arial Black,Impact,sans-serif" font-size="172" font-style="italic" font-weight="900" letter-spacing="-18">05</text>
<g fill="#cf1738"><path d="M780 486h26l-13 20zM814 486h26l-13 20zM848 486h26l-13 20zM882 486h26l-13 20zM916 486h26l-13 20z"/></g>
</svg>
